<?xml version="1.0" encoding="UTF-8" standalone="no"?>
<!-- Created with Inkscape (http://www.inkscape.org/) -->

<svg
   xmlns:dc="http://purl.org/dc/elements/1.1/"
   xmlns:cc="http://creativecommons.org/ns#"
   xmlns:rdf="http://www.w3.org/1999/02/22-rdf-syntax-ns#"
   xmlns:svg="http://www.w3.org/2000/svg"
   xmlns="http://www.w3.org/2000/svg"
   xmlns:sodipodi="http://sodipodi.sourceforge.net/DTD/sodipodi-0.dtd"
   xmlns:inkscape="http://www.inkscape.org/namespaces/inkscape"
   width="210"
   height="80"
   viewBox="0 0 55.562499 21.166667"
   version="1.1"
   id="svg8"
   inkscape:version="0.92.1 r15371"
   sodipodi:docname="drawing.svg">
  <defs
     id="defs2">
    <filter
       style="color-interpolation-filters:sRGB;"
       inkscape:label="Invert"
       id="filter78">
      <feColorMatrix
         type="hueRotate"
         values="180"
         result="color1"
         id="feColorMatrix74" />
      <feColorMatrix
         values="-1 0 0 0 1 0 -1 0 0 1 0 0 -1 0 1 -0.21 -0.72 -0.07 2 0 "
         result="color2"
         id="feColorMatrix76" />
    </filter>
  </defs>
  <sodipodi:namedview
     id="base"
     pagecolor="#ffffff"
     bordercolor="#666666"
     borderopacity="1.0"
     inkscape:pageopacity="0.0"
     inkscape:pageshadow="2"
     inkscape:zoom="0.98994949"
     inkscape:cx="69.744254"
     inkscape:cy="126.59941"
     inkscape:document-units="px"
     inkscape:current-layer="layer1"
     showgrid="false"
     units="px"
     inkscape:pagecheckerboard="true"
     inkscape:window-width="1920"
     inkscape:window-height="1018"
     inkscape:window-x="-8"
     inkscape:window-y="-8"
     inkscape:window-maximized="1" />
  <metadata
     id="metadata5">
    <rdf:RDF>
      <cc:Work
         rdf:about="">
        <dc:format>image/svg+xml</dc:format>
        <dc:type
           rdf:resource="http://purl.org/dc/dcmitype/StillImage" />
        <dc:title></dc:title>
      </cc:Work>
    </rdf:RDF>
  </metadata>
  <g
     inkscape:label="Layer 1"
     inkscape:groupmode="layer"
     id="layer1"
     transform="translate(0,-275.83332)">
    <g
       id="g32"
       transform="translate(-1.3363474,0.26726914)"
       style="filter:url(#filter78)">
      <path
         style="fill:#d0cfcf;stroke-width:0.26458332"
         d="m 2.2833011,293.43646 c -0.5930369,-0.46649 -0.6970083,-0.75293 -0.6962595,-1.91823 4.842e-4,-0.75343 0.2297876,-2.54968 0.5095633,-3.99168 0.4531471,-2.33558 0.6122919,-2.72555 1.4576843,-3.57188 0.9464876,-0.94754 0.9565249,-0.95043 3.7899159,-1.0929 1.5625032,-0.0786 2.9345709,-0.0986 3.0490389,-0.0445 0.313771,0.14821 -1.9946836,2.14843 -2.4939166,2.16092 -1.2467371,0.0312 -2.3067051,2.44414 -2.3351213,5.31575 -0.01174,1.18646 0.3768436,1.57427 1.5774255,1.57427 0.7617121,0 1.1580424,0.21129 1.985155,1.05833 l 1.0334354,1.05834 H 6.5703311 c -3.2311643,0 -3.659553,-0.0548 -4.28703,-0.54837 z m 8.1543759,-0.10107 c -0.8603698,-0.86037 -0.8444654,-1.83615 0.117062,-7.18201 1.183044,-6.57744 1.551864,-6.98928 6.244964,-6.97338 l 2.910417,0.01 -1.158507,1.04749 c -0.637179,0.57611 -1.389146,1.04748 -1.67104,1.04748 -0.719317,0 -1.473811,0.44761 -1.808442,1.07287 -0.277098,0.51776 -0.211864,0.53062 2.510655,0.49475 4.397155,-0.0579 4.746121,0.39891 3.989586,5.22284 -0.538441,3.43329 -0.973556,4.46818 -2.232108,5.30895 -0.826978,0.55246 -1.193696,0.60059 -4.57609,0.60059 -3.551267,0 -3.699283,-0.0222 -4.326497,-0.64944 z m 6.210421,-1.93025 c 0.439813,-0.35823 0.666596,-1.05493 1.002003,-3.07829 0.417735,-2.52001 0.415529,-2.62844 -0.06057,-2.97657 -0.687825,-0.50295 -1.811365,-0.45074 -2.512168,0.11674 -0.940646,0.76169 -1.702606,5.3839 -1.002871,6.08364 0.468064,0.46806 1.921146,0.3859 2.573603,-0.14552 z m 5.695829,1.93025 c -0.785257,-0.78525 -0.787163,-0.86462 -0.111975,-4.6621 l 0.537457,-3.02284 1.248481,-1.11431 c 0.686664,-0.61287 1.393119,-1.11889 1.5699,-1.12448 0.899979,-0.0285 1.082092,1.97437 0.480238,5.2815 -0.311019,1.70902 -0.308241,2.06698 0.02002,2.57969 0.488893,0.76359 1.896694,0.80452 2.676725,0.0778 0.570301,-0.53132 0.616347,-0.68538 1.150101,-3.84813 0.292069,-1.73065 0.397465,-1.92753 1.607524,-3.00288 1.408229,-1.25145 1.921108,-1.2816 2.355728,-0.13846 0.203634,0.5356 0.09255,1.78117 -0.454832,5.10001 -0.398346,2.41523 -0.764921,4.44636 -0.814607,4.51361 -0.04969,0.0673 -0.325792,-0.0248 -0.613566,-0.20448 -0.371276,-0.23187 -0.670084,-0.24817 -1.028906,-0.0561 -0.278125,0.14884 -2.185795,0.27063 -4.239266,0.27063 -3.611279,0 -3.754863,-0.0213 -4.38302,-0.64944 z m 12.2948,-0.12396 c -0.921454,-0.92146 -0.940662,-1.29116 -0.264274,-5.08695 0.553284,-3.10495 0.703729,-3.4914 1.735649,-4.4584 0.642165,-0.60177 0.972656,-0.67393 3.662315,-0.79959 1.626049,-0.076 3.015985,-0.0937 3.088745,-0.0394 0.268698,0.20063 -2.219999,2.11637 -2.935131,2.2594 -0.407141,0.0814 -0.887471,0.42021 -1.067398,0.75286 -0.303276,0.56068 -0.978815,3.73779 -1.010634,4.75309 -0.02164,0.69079 0.733647,1.27495 1.658625,1.28283 0.58815,0.005 1.139299,0.28449 1.833184,0.9296 0.545703,0.50734 0.992188,0.98037 0.992188,1.05118 0,0.0708 -1.556973,0.12873 -3.459935,0.12873 h -3.459938 z"
         id="path46"
         inkscape:connector-curvature="0" />
      <path
         style="fill:#afaeae;stroke-width:0.26458332"
         d="m 2.7767865,293.6793 c -1.3212641,-0.72267 -1.4627168,-1.71802 -0.780874,-5.49469 0.516126,-2.85878 0.7608979,-3.47974 1.7428069,-4.4213 0.7571542,-0.72605 0.9156886,-0.76254 3.6849427,-0.84825 1.5915622,-0.0492 2.8937499,-0.0211 2.8937499,0.0626 0,0.38169 -2.0429745,1.99779 -2.5335673,2.00418 -0.9902228,0.0129 -1.6112835,1.05888 -2.0465617,3.44675 -0.3594415,1.97183 -0.3625813,2.32231 -0.025482,2.84427 0.2871361,0.44459 0.6377337,0.59531 1.384807,0.59531 0.7841898,0 1.1830518,0.18852 1.8459839,0.87249 0.4651089,0.47987 0.8456525,0.95612 0.8456525,1.05833 0,0.30594 -6.4340969,0.19612 -7.0114585,-0.11968 z m 7.6608905,-0.34391 c -0.4614808,-0.46148 -0.6493799,-0.94006 -0.6492524,-1.65364 3.175e-4,-1.74204 1.5529544,-9.89252 2.0436454,-10.72797 0.81973,-1.39566 1.94397,-1.78712 5.095797,-1.77434 l 2.782253,0.0113 -1.190625,1.04634 c -0.751821,0.66071 -1.451706,1.0466 -1.899026,1.04705 -0.456825,4.5e-4 -0.912059,0.25911 -1.281875,0.72832 l -0.573474,0.7276 2.928633,0.1323 c 4.391582,0.19837 4.658821,0.59851 3.773618,5.65025 -0.879368,5.01844 -1.435674,5.4612 -6.862507,5.46183 -3.382388,4e-4 -3.542746,-0.0246 -4.167187,-0.64902 z m 6.327255,-2.06986 c 0.784098,-0.7841 1.512707,-5.21467 0.965903,-5.87353 -0.453283,-0.54617 -1.931964,-0.50922 -2.642369,0.066 -1.005503,0.81421 -1.759837,5.34676 -1.013971,6.09263 0.53654,0.53654 2.02669,0.37861 2.690437,-0.28513 z m 5.578995,2.06986 c -0.781669,-0.78167 -0.775698,-0.53609 -0.108173,-4.44852 l 0.54126,-3.17237 1.244678,-1.146 c 1.394593,-1.28402 1.764825,-1.39626 2.161411,-0.65523 0.381057,0.71201 0.341978,2.17465 -0.123028,4.60473 -0.218256,1.14058 -0.39683,2.17388 -0.39683,2.2962 0,0.51214 0.893824,1.05396 1.738691,1.05396 1.584831,0 2.002333,-0.78732 2.637523,-4.9738 0.131435,-0.86627 0.424283,-1.37076 1.228717,-2.11667 0.580885,-0.53863 1.230519,-1.07802 1.443633,-1.19866 0.50446,-0.28556 1.05973,0.1837 1.222034,1.03274 0.132643,0.69388 -1.188517,8.99375 -1.477632,9.28287 -0.09108,0.0911 -0.332584,0.027 -0.536681,-0.14238 -0.2652,-0.2201 -0.573926,-0.23086 -1.08195,-0.0377 -0.390977,0.14864 -2.315871,0.27027 -4.277543,0.27027 -3.434065,0 -3.590824,-0.0241 -4.21611,-0.64944 z m 12.2948,-0.12396 c -0.909148,-0.90915 -0.921554,-1.13382 -0.265829,-4.81357 0.876247,-4.91726 1.522407,-5.52739 5.842431,-5.51665 l 2.778125,0.007 -1.190625,1.04254 c -0.654844,0.5734 -1.385795,1.04609 -1.624335,1.05044 -1.078357,0.0196 -1.575544,0.87881 -2.019843,3.49048 -0.506081,2.97481 -0.351903,3.39658 1.241629,3.39658 0.785651,0 1.170572,0.20311 2.005674,1.05833 l 1.033436,1.05834 h -3.513635 -3.513632 z"
         id="path44"
         inkscape:connector-curvature="0" />
      <path
         style="fill:#908f8f;stroke-width:0.26458332"
         d="m 2.7767865,293.6793 c -1.346147,-0.73628 -1.4596275,-1.69892 -0.6877828,-5.83433 0.7964844,-4.26744 1.6128619,-4.97609 5.7148662,-4.9608 l 2.6458331,0.01 -1.1585067,1.04748 c -0.6371788,0.57612 -1.3766813,1.04748 -1.643339,1.04748 -0.8758899,0 -1.5115667,1.03345 -1.8490907,3.00615 -0.5887821,3.44122 -0.4413753,3.86122 1.3578883,3.86897 0.713191,0.003 1.144524,0.21477 1.7859375,0.87654 0.465109,0.47987 0.8456526,0.95612 0.8456526,1.05833 0,0.30594 -6.4340969,0.19612 -7.0114585,-0.11968 z m 8.1547705,-0.009 c -0.317064,-0.15329 -0.729282,-0.6476 -0.916039,-1.09848 -0.2945092,-0.711 -0.2262203,-1.4846 0.514714,-5.8308 1.220491,-7.15922 1.57794,-7.579 6.441749,-7.56497 l 2.738139,0.008 -1.190625,1.04254 c -0.712026,0.62347 -1.464563,1.04572 -1.872108,1.05044 -0.610325,0.007 -1.832059,0.95003 -1.832059,1.41401 0,0.0998 1.259315,0.18139 2.798478,0.18139 2.740276,0 2.814562,0.0161 3.571875,0.77339 0.922012,0.92202 0.932168,1.15426 0.220786,5.0489 -0.877845,4.80598 -1.499721,5.30042 -6.631125,5.2723 -1.797018,-0.01 -3.526721,-0.14333 -3.843785,-0.29661 z m 5.845877,-2.41729 c 0.472426,-0.47242 0.695341,-1.15423 0.960852,-2.93888 0.409984,-2.75573 0.257541,-3.15839 -1.238497,-3.27139 -1.528402,-0.11545 -2.050307,0.59253 -2.578206,3.49739 -0.397999,2.19006 -0.397363,2.39546 0.0088,2.84427 0.630955,0.6972 2.085587,0.63007 2.847043,-0.13139 z m 5.930908,2.32724 c -0.998158,-0.54208 -1.067991,-1.39364 -0.403046,-4.91479 l 0.579824,-3.07041 1.28678,-1.10883 c 0.70773,-0.60985 1.422105,-1.06391 1.587501,-1.00902 0.846174,0.28086 0.845179,1.69796 -0.0047,6.69464 -0.174056,1.02334 0.433858,1.69631 1.532329,1.69631 1.674368,0 2.103229,-0.64907 2.622275,-3.96875 0.326626,-2.08901 0.548309,-2.46946 2.203919,-3.78235 0.98434,-0.78058 1.040778,-0.79346 1.389062,-0.31716 0.199671,0.27307 0.363035,0.98589 0.363035,1.58405 0,1.13903 -1.210075,8.31164 -1.441238,8.54281 -0.07341,0.0734 -0.300464,-0.005 -0.504561,-0.1745 -0.2652,-0.2201 -0.573926,-0.23086 -1.08195,-0.0377 -1.123056,0.42698 -7.283104,0.32521 -8.129238,-0.1343 z m 11.930385,-0.36883 c -0.914003,-0.914 -0.913548,-0.90582 -0.261416,-4.69322 0.869352,-5.04897 1.484564,-5.64375 5.838018,-5.64418 l 2.778125,-2.6e-4 -1.190625,1.03363 c -0.654844,0.56849 -1.512644,1.09989 -1.906222,1.18089 -1.035037,0.213 -1.459945,1.0593 -1.832512,3.64988 -0.388483,2.70123 -0.205449,3.12999 1.336185,3.12999 0.785651,0 1.170572,0.20311 2.005674,1.05833 l 1.033436,1.05834 h -3.513635 -3.513632 z"
         id="path42"
         inkscape:connector-curvature="0" />
      <path
         style="fill:#6c6c6b;stroke-width:0.26458332"
         d="m 2.4002116,293.29985 c -0.9855512,-0.82929 -1.0125484,-1.29965 -0.3010537,-5.24509 0.8172108,-4.53166 1.5396011,-5.18637 5.704712,-5.17016 l 2.6458331,0.0103 -1.1635832,1.0218 c -0.639971,0.56199 -1.496699,1.08842 -1.9038399,1.16985 -0.4071411,0.0814 -0.8720307,0.39427 -1.0330881,0.69521 -0.2364608,0.44183 -1.0570943,4.37662 -1.0585019,5.07532 -9.261e-4,0.45655 0.9116274,1.01168 1.6721831,1.01723 0.5775926,0.004 1.1517551,0.28611 1.8331844,0.90004 0.5457032,0.49165 0.9921876,0.96514 0.9921876,1.0522 0,0.0871 -1.4791463,0.15829 -3.2869916,0.15829 -3.150206,0 -3.3208675,-0.0285 -4.1010418,-0.68498 z m 8.1614304,-0.0884 c -0.97412,-0.97412 -0.9716549,-1.13568 0.108283,-7.09603 0.730627,-4.03245 0.980388,-4.94149 1.517783,-5.5242 1.029548,-1.11637 2.093683,-1.42311 4.934227,-1.42232 l 2.588185,7.1e-4 -1.190625,1.04634 c -0.751857,0.66074 -1.458761,1.05049 -1.918229,1.05762 -0.713616,0.0111 -1.785938,0.81215 -1.785938,1.33419 0,0.15972 1.109215,0.26459 2.798478,0.26459 2.740276,0 2.814562,0.0161 3.571875,0.77339 0.425369,0.42537 0.773398,0.99986 0.773398,1.27665 0,1.10482 -1.100015,6.5235 -1.469249,7.23752 -0.729331,1.41037 -2.050662,1.82494 -5.816605,1.82494 -3.336795,0 -3.338507,-3.3e-4 -4.111583,-0.7734 z m 6.411135,-2.13702 c 0.633381,-0.85404 1.250839,-4.86139 0.848089,-5.50417 -0.17164,-0.27393 -0.700043,-0.48023 -1.355424,-0.52917 -1.548365,-0.11563 -2.021639,0.5121 -2.545682,3.37646 -0.516648,2.82395 -0.516845,2.52958 0.002,3.04848 0.664054,0.66404 2.436833,0.4365 3.050979,-0.3916 z m 5.876382,2.60096 c -1.081694,-0.52376 -1.17682,-1.26789 -0.593197,-4.64031 l 0.539944,-3.12003 1.332522,-1.26843 c 0.732887,-0.69764 1.467335,-1.2237 1.632107,-1.16901 0.706644,0.23454 0.795081,1.50308 0.317217,4.55011 -0.549245,3.50217 -0.44565,3.84046 1.176078,3.84046 1.645301,0 2.075913,-0.57659 2.588779,-3.46636 0.48188,-2.71519 0.620747,-2.97902 2.24517,-4.26559 1.008067,-0.7984 1.066469,-0.81229 1.414515,-0.33631 0.508127,0.69491 0.454274,1.8167 -0.298423,6.21618 -0.361003,2.11005 -0.657516,3.8808 -0.658916,3.935 -0.0013,0.0542 -0.184915,-0.0528 -0.407813,-0.23781 -0.316831,-0.26294 -0.62666,-0.27001 -1.41976,-0.0324 -1.248304,0.374 -7.092902,0.36991 -7.868223,-0.006 z m 12.420658,0.0423 c -0.31894,-0.12847 -0.78249,-0.54278 -1.030111,-0.9207 -0.426892,-0.65152 -0.419801,-0.86137 0.136795,-4.04913 0.914477,-5.23743 1.566683,-5.87554 6.005243,-5.87554 h 2.599986 l -1.019759,0.85989 c -0.560867,0.47294 -1.390108,0.99408 -1.842754,1.15808 -1.24082,0.44957 -1.702949,1.31234 -2.061046,3.84786 -0.381442,2.70077 -0.197393,3.13 1.342109,3.13 0.785651,0 1.170572,0.20311 2.005674,1.05833 l 1.033436,1.05834 -3.294843,-0.0168 c -1.812163,-0.009 -3.555794,-0.12188 -3.87473,-0.25035 z"
         id="path40"
         inkscape:connector-curvature="0" />
      <path
         style="fill:#4e4d4d;stroke-width:0.26458332"
         d="m 2.9906484,293.7177 c -0.3189383,-0.12847 -0.788133,-0.5514 -1.0426548,-0.93985 -0.4426271,-0.67553 -0.4386604,-0.85416 0.091146,-4.10445 0.8347634,-5.12116 1.5432757,-5.81006 5.9546693,-5.78979 l 2.4558941,0.0113 -1.1635836,1.0218 c -0.639971,0.56199 -1.496699,1.08842 -1.9038399,1.16985 -0.9468189,0.18936 -1.2116046,0.71041 -1.7182359,3.38115 -0.567,2.98898 -0.2509528,3.60776 1.7490874,3.42447 0.2216563,-0.0203 0.8708978,0.44223 1.4427592,1.02787 l 1.0397477,1.0648 -3.1625509,-0.0168 c -1.7394032,-0.009 -3.4235005,-0.12189 -3.742439,-0.25036 z m 7.5709936,-0.50627 c -0.425368,-0.42537 -0.773397,-1.05903 -0.773397,-1.40813 0,-0.3491 0.407223,-2.87055 0.90494,-5.60323 0.980129,-5.38132 1.219338,-5.91502 2.989166,-6.66913 0.896779,-0.38212 5.641778,-0.52094 5.617238,-0.16434 -0.02957,0.4297 -2.196968,1.91823 -2.79308,1.91823 -0.6344,0 -1.691181,0.82666 -1.691181,1.32291 0,0.15937 1.090537,0.26459 2.742444,0.26459 3.013145,0 3.903778,0.35877 4.242678,1.70905 0.22028,0.87767 -0.834058,6.69475 -1.38168,7.62313 -0.799373,1.35517 -2.193908,1.78032 -5.839621,1.78032 -3.232816,0 -3.246801,-0.003 -4.017507,-0.7734 z m 6.254796,-1.89093 c 0.906691,-1.00188 1.525179,-5.34522 0.856391,-6.01401 -0.384591,-0.38459 -1.912586,-0.41702 -2.589122,-0.0549 -0.847643,0.45364 -1.877977,5.0574 -1.351868,6.04044 0.481422,0.89954 2.28127,0.91618 3.084599,0.0285 z m 5.83978,2.11596 c -0.837886,-0.65909 -0.875983,-1.32609 -0.284162,-4.97511 0.412399,-2.54275 0.414878,-2.54808 1.770181,-3.80309 0.746462,-0.69122 1.439146,-1.25677 1.539298,-1.25677 0.100152,0 0.334509,0.36796 0.520794,0.81769 0.284247,0.68624 0.259731,1.30371 -0.152506,3.84084 -0.460258,2.83268 -0.463166,3.05119 -0.04616,3.4682 0.607323,0.60732 2.228862,0.53408 2.893641,-0.13069 0.332917,-0.33292 0.657108,-1.27365 0.897707,-2.60493 0.207132,-1.1461 0.433131,-2.34007 0.502222,-2.65328 0.06909,-0.3132 0.736004,-1.08051 1.482037,-1.70512 1.291479,-1.08129 1.373883,-1.11177 1.721236,-0.63674 0.509868,0.69729 0.460986,1.687 -0.296637,6.00618 -0.363803,2.07402 -0.661459,3.88876 -0.661459,4.03276 0,0.144 -0.192304,0.0695 -0.427342,-0.16552 -0.377496,-0.3775 -0.530807,-0.38411 -1.314418,-0.0567 -0.598739,0.25017 -1.953249,0.37065 -4.167185,0.37065 -2.917767,0 -3.357119,-0.0606 -3.977249,-0.54837 z m 12.368592,0.0434 c -0.453692,-0.27666 -0.898888,-0.79781 -0.989322,-1.15813 -0.09043,-0.36032 0.113921,-2.16735 0.454123,-4.01562 0.581842,-3.16109 0.676097,-3.41808 1.588442,-4.33099 l 0.969893,-0.97049 2.840461,-0.0765 2.840464,-0.0764 -1.114235,1.06864 c -0.612828,0.58775 -1.338516,1.06864 -1.612638,1.06864 -0.805696,0 -1.442077,0.95465 -1.811496,2.71746 -0.687917,3.28263 -0.382987,4.26677 1.306388,4.2163 0.616257,-0.0184 1.087731,0.20364 1.710627,0.80565 0.472942,0.45709 0.859895,0.92677 0.859895,1.04375 0,0.11697 -1.398984,0.21223 -3.108854,0.21169 -2.588136,-8.2e-4 -3.247019,-0.0852 -3.933748,-0.50399 z"
         id="path38"
         inkscape:connector-curvature="0" />
      <path
         style="fill:#30302f;stroke-width:0.26458332"
         d="m 2.9906484,293.7177 c -0.3189383,-0.12847 -0.783645,-0.54455 -1.0326814,-0.92463 -0.4279802,-0.65318 -0.4265395,-0.85851 0.026291,-3.74698 0.8366478,-5.33672 1.6513814,-6.18029 5.9519037,-6.1626 l 2.5135413,0.0103 -0.9260413,0.80867 c -0.5093229,0.44477 -1.4189408,1.02539 -2.021373,1.29027 -0.6024322,0.26488 -1.1735301,0.60813 -1.2691066,0.76277 -0.3253615,0.52645 -0.9677069,4.82375 -0.8000135,5.35211 0.1899018,0.59832 1.297127,1.10758 1.9544899,0.89894 0.2822503,-0.0896 0.8105606,0.23992 1.4739583,0.9193 l 1.0340216,1.05894 -3.1625509,-0.0168 c -1.7394032,-0.009 -3.4235005,-0.12189 -3.742439,-0.25036 z m 8.1205136,-0.0752 c -1.4112098,-0.7138 -1.4570769,-1.32519 -0.511808,-6.82218 1.214415,-7.06215 1.515894,-7.44568 5.982728,-7.61103 1.50214,-0.0556 2.731163,-0.0204 2.731163,0.0783 0,0.39981 -1.751434,1.62092 -2.756445,1.92181 -0.986919,0.29547 -1.741472,0.92329 -1.741472,1.44898 0,0.11771 1.243517,0.21402 2.763371,0.21402 2.518465,0 2.827382,0.0551 3.485632,0.62126 0.617825,0.53143 0.716744,0.8088 0.684114,1.91823 -0.02098,0.71333 -0.262662,2.46164 -0.53707,3.88514 -0.54215,2.81242 -1.054598,3.65926 -2.617236,4.32509 -1.115508,0.47531 -6.554291,0.49014 -7.482977,0.0204 z m 4.949667,-1.78695 c 0.437414,-0.15248 0.933828,-0.53944 1.103142,-0.8599 0.398763,-0.75473 1.06249,-4.60304 0.900643,-5.22195 -0.21178,-0.80985 -1.440894,-1.14864 -2.524546,-0.69586 -1.04186,0.43532 -1.301738,1.00535 -1.799975,3.94815 -0.343591,2.02941 -0.244995,2.48987 0.60635,2.8318 0.793096,0.31854 0.794193,0.31854 1.714386,-0.002 z m 7.221166,1.94162 c -1.444686,-0.5312 -1.560084,-1.28082 -0.841755,-5.46799 l 0.448271,-2.61298 1.369082,-1.17593 1.369081,-1.17592 0.462556,0.70595 c 0.440909,0.67291 0.439862,0.84561 -0.02239,3.69054 -0.266717,1.64153 -0.410159,3.17948 -0.318758,3.41766 0.220585,0.57484 1.380028,0.99515 2.186663,0.7927 1.046118,-0.26256 1.596377,-1.24467 1.940407,-3.46326 0.443949,-2.86294 0.407895,-2.78657 1.915893,-4.05814 1.281525,-1.08059 1.371449,-1.11455 1.713394,-0.64691 0.503486,0.68856 0.469543,1.28302 -0.343879,6.02231 -0.610682,3.55807 -0.770679,4.12054 -1.083199,3.80802 -0.307412,-0.30741 -0.523989,-0.3105 -1.339879,-0.0191 -0.96593,0.34496 -6.63652,0.48421 -7.45549,0.18308 z m 11.868166,-0.21351 c -1.195514,-0.64947 -1.307531,-1.53419 -0.649237,-5.12778 0.881272,-4.81081 1.699284,-5.59042 5.846697,-5.57224 l 2.38125,0.0104 -1.158507,1.04748 c -0.637178,0.57612 -1.37668,1.04748 -1.643338,1.04748 -0.898882,0 -1.479455,0.997 -1.81728,3.12076 -0.178359,1.12124 -0.371676,2.19406 -0.429602,2.38404 -0.05792,0.18998 0.197131,0.64787 0.566791,1.01753 0.514464,0.51446 0.833138,0.63169 1.358654,0.49979 0.546989,-0.13728 0.866984,0.003 1.574186,0.68802 0.488201,0.47318 0.887637,0.95604 0.887637,1.07302 0,0.39349 -6.154658,0.22574 -6.917251,-0.18854 z"
         id="path36"
         inkscape:connector-curvature="0" />
      <path
         style="fill:#000000;stroke-width:0.26458332"
         d="m 2.9732094,293.58952 c -1.3512624,-0.58727 -1.4715804,-1.29258 -0.8505152,-4.98578 0.5571764,-3.31328 0.8851415,-4.06309 2.2104241,-5.05361 0.6023743,-0.45021 1.2004136,-0.56032 3.4232351,-0.63029 l 2.6933496,-0.0848 -1.0384253,0.87853 c -0.5711338,0.48319 -1.3980017,1.006 -1.8374836,1.1618 -1.2344348,0.43762 -1.6999456,1.32697 -2.0538692,3.92386 -0.3189841,2.34053 -0.3170722,2.3582 0.3100959,2.86605 0.3954582,0.32023 0.9034912,0.47102 1.3607712,0.4039 0.5730457,-0.0841 0.9417391,0.11004 1.7172792,0.90427 l 0.9875671,1.01136 -3.0302592,-0.0104 c -2.0103683,-0.007 -3.3203516,-0.13643 -3.8921697,-0.38495 z m 8.4025356,0.16423 c -0.395114,-0.10653 -0.846325,-0.55367 -1.120569,-1.11046 -0.4475257,-0.9086 -0.4362367,-1.06004 0.447372,-6.00116 0.498566,-2.78797 1.036777,-5.31249 1.196025,-5.61004 0.604008,-1.1286 1.552744,-1.46033 4.574045,-1.59935 l 2.875214,-0.13229 -0.93945,0.8599 c -0.516697,0.47294 -1.222797,0.85989 -1.569112,0.85989 -0.742224,0 -2.023942,0.93372 -2.023942,1.47441 0,0.30081 0.514231,0.37768 2.526681,0.37768 2.62453,0 3.863166,0.35563 4.188132,1.20248 0.437017,1.13884 -0.457329,6.95524 -1.257156,8.17593 -0.826482,1.26137 -2.313805,1.72517 -5.457657,1.7019 -1.527968,-0.0113 -3.075781,-0.10081 -3.439583,-0.19889 z m 5.601124,-2.40975 c 0.436697,-0.53408 0.800469,-1.88711 1.150269,-4.27836 0.154589,-1.05678 0.09736,-1.31331 -0.405054,-1.81572 -0.465363,-0.46537 -0.778758,-0.55365 -1.531661,-0.43147 -1.399922,0.22717 -1.903207,0.90093 -2.324958,3.11244 -0.51506,2.70079 -0.48,3.30119 0.222259,3.8062 0.764761,0.54995 2.287448,0.34278 2.889145,-0.39309 z m 6.437418,2.45053 c -0.848619,-0.20674 -1.455208,-0.89526 -1.455208,-1.65176 0,-0.38594 0.238203,-1.99822 0.529341,-3.58285 0.527932,-2.87348 0.532684,-2.8841 1.785937,-3.99118 0.691128,-0.61052 1.353238,-1.05181 1.471354,-0.98065 0.617508,0.37204 0.708729,1.56009 0.30277,3.94326 -0.231783,1.36067 -0.383516,2.80004 -0.337184,3.19859 0.105634,0.90869 1.164661,1.55423 2.145773,1.30799 1.23259,-0.30936 1.667441,-1.07904 2.155825,-3.81581 0.453655,-2.54214 0.473702,-2.5847 1.745985,-3.7064 l 1.287061,-1.13474 0.46374,0.70776 c 0.446673,0.68171 0.436261,0.86952 -0.282868,5.10348 -0.410634,2.41765 -0.789266,4.44246 -0.841402,4.49958 -0.05214,0.0571 -0.251891,-0.0265 -0.443897,-0.18588 -0.255352,-0.21192 -0.6301,-0.18964 -1.395457,0.083 -1.0105,0.35994 -5.917618,0.50143 -7.13177,0.20564 z m 12.303125,0.003 c -0.218281,-0.0798 -0.664765,-0.38881 -0.992187,-0.68669 -0.748366,-0.68086 -0.760558,-1.56758 -0.0713,-5.18483 0.827259,-4.34146 1.380366,-4.85406 5.405832,-5.00991 l 2.669114,-0.10333 -0.62597,0.67456 c -0.344286,0.371 -1.255474,0.97261 -2.024864,1.3369 -1.555298,0.7364 -1.710963,1.02949 -2.231406,4.20142 -0.207489,1.26459 -0.21131,1.94152 -0.01304,2.31198 0.299222,0.55911 1.350118,0.94257 1.951114,0.71195 0.204367,-0.0784 0.808988,0.3156 1.377204,0.8975 l 1.012902,1.03731 -3.03026,-0.0209 c -1.666642,-0.0115 -3.208853,-0.0862 -3.427135,-0.16597 z"
         id="path34"
         inkscape:connector-curvature="0" />
    </g>
  </g>
</svg>
